<?xml version="1.0" encoding="UTF-8" standalone="no"?>
<!DOCTYPE svg PUBLIC "-//W3C//DTD SVG 1.1//EN" "http://www.w3.org/Graphics/SVG/1.1/DTD/svg11.dtd">
<svg width="100%" height="100%" viewBox="0 0 1080 1100" version="1.1" xmlns="http://www.w3.org/2000/svg" xmlns:xlink="http://www.w3.org/1999/xlink" xml:space="preserve" xmlns:serif="http://www.serif.com/" style="fill-rule:evenodd;clip-rule:evenodd;stroke-linejoin:round;stroke-miterlimit:2;">
    <g id="IMG_3764.PNG" transform="matrix(1.210344,0,0,1.210344,83.844567,171.533886)">
        <path d="M390.5,2.034C446.91,4.994 523.856,1.339 544.46,3.941C545.015,4.011 544.919,3.382 551.455,3.942C553.13,4.086 553.071,2.567 572.459,2.999C572.773,3.006 574.924,3.9 575.444,3.921C599.166,4.863 610.31,-0.812 607.316,8.426C606.825,9.941 606.324,13.038 606.258,13.443C605.408,18.696 631.786,12.472 629.628,19.547C626.737,29.029 633.38,25.31 636.571,26.315C642.352,28.136 654.122,24.762 651.316,33.426C650.659,35.454 651.868,35.632 650.316,40.426C649.103,44.17 648.987,47.841 648.966,48.495C648.76,55.018 668.682,48.822 671.216,54.626C672.09,56.627 654.727,158.486 635.558,235.52C631.273,252.74 625.828,285.247 619.559,304.522C617.797,309.939 617.657,309.848 616.767,315.538C616.403,317.867 615.991,320.5 587.474,318.754C582.421,318.445 582.529,318.035 577.501,318.023C556.46,317.973 556.536,318.966 535.5,318.966C519.624,318.966 519.574,318.713 516.574,319.685C513.071,320.819 469.765,318.348 450.556,320.921C446.974,321.401 432.605,320.055 427.574,321.685C425.155,322.468 327.751,321.124 322.519,322.559C319.671,323.34 302.056,322.045 296.518,323.557C293.806,324.298 283.794,323.114 278.518,324.558C274.961,325.532 262.598,324.057 257.574,325.685C254.446,326.698 233.052,324.91 227.574,326.685C226.915,326.898 51.185,327.299 45.426,326.511C41.254,325.94 37.785,327.044 21.502,326.665C20.3,326.637 20.415,326.723 6.497,326.64C1.104,326.607 2.485,323.045 3.184,318.445C4.276,311.263 10.913,290.936 11.684,288.574C13.028,284.458 12.744,284.425 26.759,236.595C27.482,234.129 33.542,213.448 34.996,205.55C36.28,198.572 67.432,101.612 67.996,98.55C68.557,95.497 69.406,95.785 79.442,61.479C85.736,39.968 91.463,25.63 92.682,22.577C95.109,16.501 96.578,7.109 98.424,6.349C104.08,4.021 104.556,7.217 110.426,5.315C113.582,4.293 128.934,6.094 134.426,4.315C138.542,2.982 138.658,4.955 188.502,4.629C194.109,4.593 194.165,2.981 199.426,4.684C200.11,4.906 312.364,5.955 317.426,4.315C320.511,3.316 339.667,5.017 345.483,3.444C347.556,2.883 366.193,3.443 368.582,2.757C371.724,1.856 372.519,2.034 390.5,2.034ZM226.5,286.034C179.537,285.227 179.549,284.962 175.477,285.242C128.833,288.45 115.033,284.175 108.426,286.315C102.898,288.106 77.608,286.285 74.426,287.315C71.084,288.398 70.138,288.021 62.494,288.142C52.834,288.294 48.79,290.77 50.57,285.527C61.857,252.287 67.177,227.975 68.311,224.426C69.51,220.676 82.57,179.809 83.004,177.45C84.822,167.574 121.392,47.019 125.949,38.729C128.043,34.919 138.3,38.738 141.573,37.685C147.02,35.933 161.564,37.66 164.574,36.685C170.042,34.913 186.493,36.683 189.574,35.685C193.88,34.29 193.959,34.998 202.501,35.001C249.572,35.018 249.687,35.944 253.574,34.685C259.049,32.911 277.404,34.711 280.574,33.685C284.63,32.371 284.755,33.022 350.5,33.035C358.064,33.036 357.949,33.981 365.5,34.035C374.848,34.101 374.7,35.047 375.504,35.032C406.794,34.463 512.24,35.92 533.5,36.035C539.692,36.068 558.689,38.028 559.5,38.035C561.519,38.052 563.539,37.999 565.556,38.079C569.752,38.246 570.134,39.329 569.215,43.458C563.682,68.32 563.961,68.33 563.429,70.475C554.742,105.442 555.648,105.599 554.684,108.574C552.25,116.09 553.198,116.988 552.684,118.574C550.442,125.499 543.698,161.778 542.996,165.55C536.43,200.875 517.035,272.43 514.919,285.603C514.6,287.589 507.192,287.256 505.426,286.684C502.319,285.678 502.348,285.965 488.5,285.965C468.173,285.965 468.19,285.012 466.455,285.329C456.083,287.22 327.937,289.152 323.426,287.685C318.305,286.02 290.181,287.44 286.449,286.926C281.698,286.272 278.426,285.822 226.5,286.034ZM559.5,313.034C546.456,313.092 546.498,314.187 545.398,313.927C544.578,313.733 543.077,313.378 546.316,303.426C548.512,296.678 547.844,295.881 548.316,294.426C550.766,286.861 552.521,275.229 552.776,273.539C555.598,254.834 556.845,255.092 557.001,253.458C558.174,241.188 559.507,241.384 560.001,237.458C560.134,236.407 561.215,227.824 562.316,224.426C564.113,218.877 566.489,203.886 568.567,195.523C581.332,144.141 579.895,143.804 581.315,139.427C583.366,133.101 603.757,26.877 603.912,25.534C604.908,16.89 608.765,20.61 617.485,20.922C622.776,21.112 625.823,19.416 624.755,24.582C624.442,26.096 621.137,42.089 620.999,43.542C618.807,66.491 600.937,134.64 600.315,136.426C596.964,146.048 589.446,190.372 589.233,192.465C588.559,199.071 588.053,198.97 587.999,199.542C586.802,212.072 585.323,212.143 584.999,215.542C583.829,227.792 582.492,227.627 581.999,231.542C579.321,252.794 565.596,303.113 564.921,309.557C564.528,313.311 563.255,312.557 559.5,313.034ZM634.5,30.966C635.379,30.998 635.305,31.045 645.448,31.983C648.951,32.307 645.351,38.188 645.031,44.495C645.031,44.511 635.317,99.16 632.315,108.426C631.815,109.969 632.557,110.507 630.315,117.426C630.073,118.176 628.179,128.487 628.002,129.45C627.631,131.474 626.581,131.718 624.038,149.444C623.186,155.387 618.617,173.364 618.092,175.431C609.924,207.569 604.826,223.083 603.046,235.442C602.733,237.616 601.992,237.46 598.057,262.442C597.407,266.57 590.156,312.611 587.582,313.62C586.459,314.061 586.415,313.068 572.502,313.188C567.235,313.233 570.2,310.315 571.996,300.55C573.868,290.37 575.122,290.736 576.996,280.55C577.484,277.899 577.738,277.967 583.802,247.55C594.709,192.85 596.82,166.407 599.685,157.574C601.907,150.724 600.403,150.462 602.687,143.577C604.465,138.219 607.82,122.437 611.554,110.519C613.167,105.37 626.556,47.246 626.97,36.504C627.187,30.85 628.801,31.064 634.5,30.966ZM630.963,137.507C631.794,130.24 636.768,112.31 637.001,110.458C637.175,109.08 637.834,103.848 640.241,93.411C644.466,75.095 643.818,74.99 644.245,73.415C647.876,60.038 644.216,54.748 652.559,56.043C658.549,56.973 658.491,56.693 664.499,56.848C668.504,56.951 666.198,59.062 665.217,65.457C663.828,74.513 644.845,174.25 641.77,186.6C624.849,254.568 621.844,274.044 620.765,278.595C620.116,281.335 616.431,296.875 611.737,312.612C611.096,314.759 604.49,314.216 598.508,314.085C594.526,313.997 592.585,314.428 593.568,310.524C594.048,308.62 598.125,292.422 598.771,286.535C603.965,239.172 627.826,160.558 630.963,137.507ZM171.408,10.676C172.168,10.997 172.927,11.317 173.687,11.638C156.697,18.099 151.536,32.71 135.491,33.075C128.141,33.243 124.491,31.296 121.738,38.597C116.549,52.359 115.619,52.818 114.434,53.403C113.52,53.854 114.646,55.238 104.256,61.066C100.065,63.416 99.617,65.907 94.447,68.416C88.915,71.101 90.099,72.856 84.452,75.409C83.259,75.948 83.512,76.117 81.265,79.134C80.719,78.912 80.173,78.69 79.627,78.468C80.195,75.112 88.43,49.871 89.237,47.398C90.437,43.721 89.983,43.149 93.545,41.586C93.972,41.398 93.555,40.808 98.547,38.59C98.973,38.4 98.541,37.819 103.548,35.593C105.71,34.632 105.014,33.525 107.383,33.024C108.061,32.88 113.62,29.158 114.389,28.378C115.072,27.685 122.355,23.918 127.364,20.278C128.386,19.535 136.775,13.438 140.551,11.583C143.808,9.982 143.904,9.854 160.496,9.952C163.011,9.967 162.932,10.782 165.423,10.236C167.688,9.739 167.657,10.173 171.408,10.676ZM171.42,289.754L172.059,290.6C171.727,290.836 173.451,290.971 173.119,291.207C172.431,291.696 171.428,291.375 170.621,291.622C168.985,292.123 167.061,293.599 166.781,293.814C164.773,295.355 164.973,295.545 153.635,303.717C148.785,307.213 143.228,312.229 131.361,321.293C129.476,322.732 86.94,322.253 79.465,321.551C78.7,321.124 77.936,320.696 77.172,320.269C85.435,318.159 83.893,315.307 91.564,311.604C92.016,311.385 95.815,307.404 99.553,305.585C100.703,305.025 106.785,299.951 109.56,298.596C110.119,298.323 109.856,298.142 115.748,293.877C123.793,288.052 124.65,290.928 134.5,290.898C164.955,290.805 165.001,290.937 169.504,289.825C169.653,289.788 169.646,289.82 171.42,289.754ZM471.921,28.961C478.248,28.015 480.294,22.656 486.562,19.599C489.335,18.247 491.942,13.81 498.561,10.599C503.402,8.25 503.583,8.868 520.499,8.896C546.9,8.94 546.79,9.435 549.473,9.761C551.927,10.06 566.868,7.607 557.506,11.507C552.682,13.517 534.497,30.082 530.499,30.19C525.927,30.313 476.757,29.728 473.484,30.54C472.861,30.695 472.271,31.056 471.629,31.06C471.448,31.061 471.613,30.553 471.432,30.555C471.595,30.023 471.758,29.492 471.921,28.961ZM188.624,318.625C190.792,316.656 191.149,317.18 218.356,297.269C230.843,288.13 232.016,290.8 247.5,290.807C257.797,290.812 257.732,291.2 267.398,289.952C268.359,289.828 268.129,292.294 266.458,292.451C261.216,292.944 262.253,295.061 257.441,297.406C256.902,297.669 256.937,297.723 250.339,303.308C248.074,305.226 247.336,304.199 242.779,308.784C238.935,312.651 236.645,312.138 232.158,317.186C231.854,317.529 231.437,316.903 227.342,320.292C225.227,322.042 214.038,320.657 188.516,321.363C188.442,321.221 186.471,320.51 188.624,318.625ZM546.697,264.942C546.7,264.943 546.835,264.59 549.084,265.534C545.839,275.761 546.237,290.093 541.438,292.401C539.543,293.312 537.982,296.707 534.451,298.423C532.287,299.474 529.705,301.967 529.334,302.325C528.436,303.191 528.291,303 517.771,312.795C515.123,315.26 514.583,313.391 481.529,314.401C481.658,313.594 481.787,312.787 481.916,311.98C484.167,310.649 485.683,310.352 487.845,307.821C488.216,307.388 488.583,308.011 493.66,303.692C494.488,302.987 494.866,303.698 504.658,295.694C506.065,294.545 506.805,295.651 509.249,293.233C512.286,290.229 515.974,293.476 518.23,288.381C521.315,281.413 526.085,282.159 533.23,275.213C534.128,274.34 534.621,274.994 545.65,265.683C545.728,265.617 545.65,265.683 546.697,264.942ZM286.458,316.459C292.113,313.4 313.193,297.271 314.341,297.029C318.291,296.197 318.186,291.145 323.484,292.555C329.96,294.279 360.364,292.516 363.565,292.33C365.126,292.24 364.759,294.289 363.43,294.423C355.374,295.237 356.985,298.694 349.431,302.388C348.709,302.741 349.018,303.136 341.653,308.735C339.645,310.261 339.793,310.397 337.455,311.415C333.294,313.226 334.886,316.931 326.495,317.079C323.374,317.135 297.166,317.6 287.5,318.474C287.306,318.242 287.337,318.24 286.458,316.459ZM46.613,276.766C48.235,276.018 48.211,275.958 48.365,275.958C48.974,275.958 48.703,276.471 49.276,276.471C48.25,278.705 42.018,289.413 45.836,293.159C46.335,293.648 46.382,293.421 56.505,292.817C58.558,292.694 68.199,290.449 61.988,293.806C58.013,295.955 57.537,295.116 54.343,298.335C53.174,299.514 52.71,298.874 37.763,310.821C26.585,319.756 26.694,320.049 25.463,320.117C24.047,320.195 9.021,321.025 7.742,320.113C6.677,319.354 8.093,319.226 12.242,304.405C14.232,297.296 16.873,299.369 22.227,294.209C22.76,293.695 23.115,294.249 29.66,288.694C30.234,288.206 30.326,288.35 37.352,283.262C40.573,280.929 40.676,281.235 43.659,278.694C44.197,278.235 46.372,276.913 46.613,276.766ZM97.58,105.652C98.045,105.839 98.509,106.026 98.974,106.213C98.672,107.37 98.852,107.352 98.383,108.48C95.511,115.382 90.297,135.296 88.087,140.306C87.091,142.565 59.525,160.956 53.592,165.874C53.01,165.742 52.428,165.609 51.846,165.477C52.7,163.023 60.879,139.545 61.796,134.558C62.628,130.035 75.654,123.353 78.237,121.192C85.976,114.718 86.272,115.299 94.358,109.268C96.329,107.798 96.04,107.609 97.58,105.652ZM69.728,193.942C70.143,194.051 70.093,193.764 70.536,193.881C70.669,193.916 70.653,193.932 72.118,194.565C65.689,217.179 64.973,224.688 59.432,227.391C57.022,228.566 57.812,229.622 53.271,232.064C51.223,233.166 45.664,238.319 41.433,240.392C40.647,240.777 36.212,244.449 35.769,244.816C32.785,247.288 32.502,246.913 30.166,250.015C29.084,250.068 29.122,250.122 28.2,249.604C35.186,228.437 35.368,217.615 39.557,215.591C41.374,214.713 50.034,207.261 55.561,204.6C56.081,204.349 55.556,203.563 61.569,200.612C61.724,200.537 66.897,196.628 67.358,196.279C67.571,196.119 68.527,195.396 69.728,193.942ZM386.147,316.919C385.939,316.429 385.16,316.349 384.951,315.859C384.692,315.25 388.281,315.675 394.364,311.278C415.848,295.747 416.482,296.683 418.241,295.197C426.421,288.286 430.97,293.327 437.517,291.556C440.954,290.626 440.953,291.043 444.495,291.002C456.156,290.868 457.057,289.702 457.395,289.828C460.535,290.999 453.493,292.807 452.57,293.571C448.363,297.052 448.121,296.513 447.765,296.81C444.73,299.346 444.867,299.414 441.641,301.729C429.511,310.437 423.672,316.032 420.491,316.071C404.438,316.268 404.501,315.892 388.484,316.551C387.705,316.673 386.926,316.796 386.147,316.919ZM202.821,28.722C209.316,24.212 209.39,24.456 215.754,19.888C225.585,12.832 226.808,9.942 232.498,10.003C242.282,10.106 244.792,9.55 248.482,10.559C251.622,11.417 270.01,10.097 270.244,10.615C270.919,12.114 268.307,10.188 253.341,22.301C250.21,24.834 249.849,24.231 246.765,26.81C243.497,29.544 243.564,29.985 238.492,30.077C226.894,30.288 223.145,29.935 203.61,30.154C203.347,29.677 203.084,29.2 202.821,28.722ZM596.039,43.443C592.737,54.351 594.947,56.25 588.435,59.395C586.498,60.33 583.531,64.925 576.429,68.385C574.369,69.388 575.222,70.519 571.439,72.403C570.301,72.969 566.976,78.445 566.677,75.474C566.579,74.496 570.221,61.709 570.56,60.52C571.392,57.597 574.591,38.24 576.75,36.905C586.776,30.708 585.715,29.158 588.727,27.982C589.642,27.625 592.345,26.57 598.655,20.753C599.523,19.953 600.456,17.803 601.291,19.563C601.605,20.224 601.131,20.174 599.083,28.434C596.327,39.548 596.798,39.709 596.039,43.443ZM551.965,143.553C553.162,137.858 553.111,137.898 553.244,137.414C555.508,129.15 553.661,127.375 559.364,123.281C564.528,119.574 568.157,115.815 569.74,114.912C574.501,112.198 573.88,111.523 578.351,108.264C583.646,104.404 582.962,103.396 583.493,103.564C584.345,103.833 584.151,104.217 581.759,114.589C576.187,138.754 576.005,139.005 573.638,140.723C572.258,141.726 557.907,152.145 556.262,153.08C551.842,155.591 552.147,155.933 551.195,158.05C547.813,165.569 551.4,149.038 551.965,143.553ZM361.41,7.823C361.405,9.001 361.362,8.939 361.078,10.048C355.436,13.276 356.296,14.504 350.424,17.377C348.489,18.325 348.032,20.677 344.441,22.406C344.326,22.462 344.415,22.406 338.354,27.289C336.824,28.522 336.582,27.854 317.505,28.043C314.951,28.069 315.064,26.83 306.502,27.243C304.153,27.356 299.592,28.508 299.868,26.773C299.992,25.989 301.419,27.935 311.66,19.698C315.344,16.735 315.606,17.216 319.237,14.192C321.068,12.666 322.886,9.007 327.508,8.955C344.525,8.762 344.429,8.846 361.41,7.823ZM444.483,8.641C444.811,9.253 445.139,9.865 445.466,10.477C444.796,11.023 444.824,10.884 436.634,16.715C433.423,19 433.862,19.402 430.643,21.728C422.934,27.297 421.942,30.06 417.495,30.091C389.731,30.283 389.645,30.546 387.483,29.5C402.782,21.133 412.212,8.81 417.502,8.807C431.006,8.801 430.921,8.947 444.483,8.641ZM563.416,188.191C563.991,188.314 564.566,188.436 565.141,188.559C563.772,196.587 560.534,209.617 560.082,211.436C558.037,219.666 554.568,217.001 533.6,234.885C533.021,234.746 532.442,234.607 531.864,234.468C539.448,210.878 535.516,206.437 545.561,201.599C546.181,201.3 545.356,200.142 552.57,196.614C552.661,196.569 559.016,190.862 561.546,189.574C561.971,189.358 563.271,188.308 563.416,188.191ZM481.916,311.98C481.787,312.787 481.658,313.594 481.529,314.401C476.726,315.664 476.755,314.155 476.94,313.835C477.641,312.624 479.238,312.478 479.467,312.457C479.666,312.438 481.311,312.287 481.916,311.98ZM188.624,318.625C186.471,320.51 188.442,321.221 188.516,321.363C188.132,321.463 182.448,322.944 183.621,320.598C184.061,319.718 185.349,319.551 185.522,319.528C187.174,319.313 187.032,318.958 188.624,318.625ZM286.458,316.459C287.337,318.24 287.306,318.242 287.5,318.474C286.513,318.751 285.526,319.028 284.539,319.305C284.225,318.732 283.91,318.16 283.596,317.588C283.806,317.459 283.802,317.623 286.458,316.459ZM361.41,7.823C361.623,7.787 372.12,6.032 363.514,9.513C362.292,10.007 362.314,9.776 361.078,10.048C361.362,8.939 361.405,9.001 361.41,7.823ZM444.483,8.641C444.714,8.556 446.938,7.741 447.443,7.813C447.705,7.851 449.935,9.507 445.466,10.477C445.139,9.865 444.811,9.253 444.483,8.641ZM71.387,192.041C72.106,192.196 72.825,192.351 73.543,192.506C73.068,193.193 72.593,193.879 72.118,194.565C70.653,193.932 70.669,193.916 70.536,193.881C70.093,193.764 70.143,194.051 69.728,193.942C70.281,193.308 70.834,192.674 71.387,192.041ZM546.697,264.942C547.527,264.377 547.686,263.107 548.515,262.542C550.765,261.012 549.169,265.305 549.084,265.534C546.835,264.59 546.7,264.943 546.697,264.942ZM563.416,188.191C563.715,186.868 563.664,186.963 563.715,186.868C563.8,186.712 567.177,184.537 565.141,188.559C564.566,188.436 563.991,188.314 563.416,188.191ZM51.846,165.477C52.428,165.609 53.01,165.742 53.592,165.874C53.295,167.147 53.345,167.055 53.295,167.147C49.757,173.652 51.802,165.648 51.846,165.477ZM28.2,249.604C29.122,250.122 29.084,250.068 30.166,250.015C28.259,251.657 27.118,254.195 27.237,251.622C27.237,251.622 28.123,249.765 28.2,249.604ZM79.627,78.468C80.173,78.69 80.719,78.912 81.265,79.134C81.12,79.306 79.453,81.283 79.453,81.283C79.228,81.297 78.161,81.228 79.627,78.468ZM202.821,28.722C203.084,29.2 203.347,29.677 203.61,30.154C202.962,30.01 202.268,30.362 201.62,30.218C201.471,30.185 199.921,28.926 202.821,28.722ZM531.864,234.468C532.442,234.607 533.021,234.746 533.6,234.885C532.636,237.844 530.876,236.527 530.92,236.421C530.987,236.261 530.99,236.277 531.864,234.468ZM71.387,192.041C71.497,191.912 71.421,191.683 71.53,191.554C71.635,191.431 72.586,190.311 73.377,190.746C73.377,190.746 73.53,192.365 73.543,192.506C72.825,192.351 72.106,192.196 71.387,192.041ZM283.596,317.588C283.91,318.16 284.225,318.732 284.539,319.305C284.386,319.299 282.62,319.235 282.62,319.235C281.232,318.716 282.378,318.346 283.596,317.588Z" style="fill:rgb(254,254,254);fill-opacity:0.98;"/>
        <path d="M229.5,156.035C236.564,155.735 293.573,155.759 296.419,158.582C299.665,161.802 294.519,165.29 265.005,260.379C263.129,266.422 260.27,264.86 242.502,264.827C225.75,264.797 225.748,265.052 222.58,264.244C220.869,263.807 220.852,265.182 200.547,263.061C190.118,261.972 145.574,264.124 125.546,262.061C116.703,261.15 83.864,264.98 82.443,261.531C80.975,257.969 104.787,185.004 107.019,180.278C110.46,172.992 112.971,156.562 118.467,156.232C130.99,155.478 130.994,156.749 143.474,155.245C144.327,155.142 164.508,155.162 222.5,155.199C226.085,155.202 225.954,155.713 229.5,156.035ZM174.5,245.034C170.718,244.684 170.719,244.781 170.416,244.656C167.313,243.373 175.955,219.029 177.787,217.979C186.898,212.759 189.256,226.327 190.437,226.644C196.045,228.151 192.317,216.353 206.552,217.068C213.087,217.397 204.141,231.952 202.92,242.56C202.5,246.216 201.147,245.349 197.458,244.999C194.354,244.704 191.109,245.459 193.274,239.418C196.668,229.944 189.656,240.064 187.461,239.925C185.261,239.785 184.298,230.524 182.346,236.425C180.49,242.038 180.202,241.927 180.101,242.429C179.39,245.96 178.062,244.667 174.5,245.034ZM178.5,177.966C179.524,178.095 180.57,177.956 181.595,178.085C182.983,178.26 184.733,179.134 179.314,195.424C175.947,205.545 176.993,208.566 169.444,207.921C163.726,207.432 165.012,205.032 166.697,199.574C167.807,195.978 160.71,194.223 158.996,203.55C157.706,210.562 147.274,208.634 146.998,205.457C146.739,202.467 154.317,178.505 154.351,178.419C155.045,176.65 168.093,173.593 164.315,184.426C162.384,189.966 166.304,189.23 166.572,189.314C170.115,190.423 169.76,188.088 171.314,183.424C173.72,176.209 175.792,178.241 178.5,177.966ZM127.5,245.034C122.039,244.578 120.609,243.678 122.316,238.426C125.7,228.009 125.98,227.93 125.58,227.435C124.726,226.381 112.294,229.093 119.336,216.394C120.759,213.827 144.182,215.041 146.467,215.606C152.289,217.048 151.39,219.259 148.331,224.397C145.707,228.804 144.487,226.74 139.406,227.086C136.661,227.272 137.727,233.27 132.025,244.154C131.671,244.83 131.557,244.561 127.5,245.034ZM206.034,189.5C204.213,215.909 182.14,211.899 183.927,195.551C185.748,178.893 204.378,170.382 206.034,189.5ZM217.5,247.034C216.056,246.931 207.791,247.633 209.251,243.403C213.075,232.328 213.153,225.107 215.076,218.382C215.439,217.111 215.817,216.509 231.551,217.072C235.402,217.21 235.033,218.623 234.172,222.429C232.808,228.458 224.61,224.947 223.566,225.61C217.033,229.757 231.135,228.146 229.693,232.575C228.492,236.264 227.269,234.818 223.439,235.078C220.451,235.281 218.911,240.193 222.518,239.586C223.165,239.477 231.901,238.005 229.685,243.573C227.712,248.528 222.312,247.017 217.5,247.034ZM135.5,175.966C136.312,176.036 142.589,176.58 144.668,180.397C150.681,191.442 135.747,193.862 134.396,194.081C133.851,194.169 133.149,194.283 131.996,200.55C130.811,206.989 128.953,206.248 122.439,205.921C116.012,205.597 125.117,184.252 126.004,179.445C126.938,174.385 135.322,175.975 135.5,175.966ZM257.855,182.129C255.491,183.601 254.668,184.32 256.823,186.15C257.031,186.327 257.347,186.595 259.736,184.38C261.085,190.419 260.641,190.379 260.257,196.464C259.221,195.331 259.397,194.275 258.133,195.206C257.352,195.781 257.881,195.86 258.5,197.03C256.31,200.153 254.779,200.606 257.408,203.427C256.68,204.417 256.743,204.323 256.073,205.245C253.258,209.117 245.47,208.703 245.427,208.684C235.63,204.364 238.28,199.389 239.004,195.45C241.814,180.185 251.078,177.051 257.855,182.129ZM233.5,178.966C237.105,179.306 238.684,177.872 239.002,181.543C239.83,191.1 228.929,189.026 227.94,191.609C227.553,192.62 224.931,199.47 223.996,204.55C222.974,210.098 220.983,208.58 215.406,207.914C213.133,207.643 212.129,206.375 217.327,191.434C218.352,188.488 216.512,189.147 213.44,188.92C209.631,188.638 210.315,187.211 211.005,183.451C211.103,182.912 212.06,177.696 215.546,178.327C224.444,179.939 224.407,178.966 233.5,178.966ZM162.5,215.966C162.996,216.009 167.614,216.409 168.535,217.471C169.391,218.458 168.137,220.781 167.996,221.55C166.802,228.026 162.113,238.92 161.998,239.548C160.496,247.805 148.775,245.596 149.319,242.454C150.908,233.273 152.307,233.676 154.004,224.45C155.266,217.595 155.63,216.561 162.5,215.966ZM240.966,232.5C241.121,223.238 241.041,223.258 241.067,222.454C241.316,214.657 249.125,217.473 251.609,218.081C255.192,218.959 249.806,234.954 246.603,236.668C239.799,240.309 241.076,233.671 240.966,232.5ZM246.034,244.5C245.915,245.196 247.306,250.006 239.609,247.06C234.299,245.028 241.845,237.398 245.529,241.476C245.529,241.476 245.994,244.258 246.034,244.5ZM259.901,197.583C258.883,200.665 259.027,200.649 257.408,203.427C254.779,200.606 256.31,200.153 258.5,197.03L259.901,197.583ZM257.855,182.129C258.909,183.25 258.836,183.18 259.736,184.38C257.347,186.595 257.031,186.327 256.823,186.15C254.668,184.32 255.491,183.601 257.855,182.129ZM260.257,196.464L259.901,197.583L258.5,197.03C257.881,195.86 257.352,195.781 258.133,195.206C259.397,194.275 259.221,195.331 260.257,196.464Z" style="fill:rgb(254,254,254);fill-opacity:1;"/>
        <path d="M481.916,311.98C481.787,312.787 481.658,313.594 481.529,314.401C476.726,315.664 476.755,314.155 476.94,313.835C477.641,312.624 479.238,312.478 479.467,312.457C479.666,312.438 481.311,312.287 481.916,311.98Z" style="fill:rgb(235,235,235);fill-opacity:0.12;"/>
        <path d="M188.624,318.625C186.471,320.51 188.442,321.221 188.516,321.363C188.132,321.463 182.448,322.944 183.621,320.598C184.061,319.718 185.349,319.551 185.522,319.528C187.174,319.313 187.032,318.958 188.624,318.625Z" style="fill:rgb(206,206,206);fill-opacity:0.1;"/>
        <path d="M361.41,7.823C361.623,7.787 372.12,6.032 363.514,9.513C362.292,10.007 362.314,9.776 361.078,10.048C361.362,8.939 361.405,9.001 361.41,7.823Z" style="fill:rgb(235,235,235);fill-opacity:0.1;"/>
        <path d="M444.483,8.641C444.714,8.556 446.938,7.741 447.443,7.813C447.705,7.851 449.935,9.507 445.466,10.477C445.139,9.865 444.811,9.253 444.483,8.641Z" style="fill:rgb(208,208,208);fill-opacity:0.1;"/>
        <path d="M71.387,192.041C72.106,192.196 72.825,192.351 73.543,192.506C73.068,193.193 72.593,193.879 72.118,194.565C70.653,193.932 70.669,193.916 70.536,193.881C70.093,193.764 70.143,194.051 69.728,193.942C70.281,193.308 70.834,192.674 71.387,192.041Z" style="fill:rgb(233,233,233);fill-opacity:0.06;"/>
        <path d="M546.697,264.942C547.527,264.377 547.686,263.107 548.515,262.542C550.765,261.012 549.169,265.305 549.084,265.534C546.835,264.59 546.7,264.943 546.697,264.942Z" style="fill:rgb(231,231,231);fill-opacity:0.09;"/>
        <path d="M46.613,276.766C46.743,276.596 51.976,269.765 49.276,276.471C48.703,276.471 48.974,275.958 48.365,275.958C48.211,275.958 48.235,276.018 46.613,276.766Z" style="fill:rgb(235,235,235);fill-opacity:0.2;"/>
        <path d="M563.416,188.191C563.715,186.868 563.664,186.963 563.715,186.868C563.8,186.712 567.177,184.537 565.141,188.559C564.566,188.436 563.991,188.314 563.416,188.191Z" style="fill:rgb(236,236,236);fill-opacity:0.05;"/>
        <path d="M260.257,196.464L259.901,197.583L258.5,197.03C257.881,195.86 257.352,195.781 258.133,195.206C259.397,194.275 259.221,195.331 260.257,196.464Z" style="fill:rgb(164,164,164);fill-opacity:0.04;"/>
        <path d="M51.846,165.477C52.428,165.609 53.01,165.742 53.592,165.874C53.295,167.147 53.345,167.055 53.295,167.147C49.757,173.652 51.802,165.648 51.846,165.477Z" style="fill:rgb(231,231,231);fill-opacity:0.11;"/>
        <path d="M28.2,249.604C29.122,250.122 29.084,250.068 30.166,250.015C28.259,251.657 27.118,254.195 27.237,251.622C27.237,251.622 28.123,249.765 28.2,249.604Z" style="fill:rgb(236,236,236);fill-opacity:0.22;"/>
        <path d="M79.627,78.468C80.173,78.69 80.719,78.912 81.265,79.134C81.12,79.306 79.453,81.283 79.453,81.283C79.228,81.297 78.161,81.228 79.627,78.468Z" style="fill:rgb(244,244,244);fill-opacity:0.16;"/>
        <path d="M202.821,28.722C203.084,29.2 203.347,29.677 203.61,30.154C202.962,30.01 202.268,30.362 201.62,30.218C201.471,30.185 199.921,28.926 202.821,28.722Z" style="fill:rgb(236,236,236);fill-opacity:0.18;"/>
        <path d="M454.04,103.448C454.675,104.27 455.691,104.744 456.325,105.567C456.627,105.958 456.018,106.974 455.855,106.869C455.642,106.733 455.697,106.697 453.724,104.541L454.04,103.448Z" style="fill:rgb(115,115,115);fill-opacity:0.28;"/>
        <path d="M531.864,234.468C532.442,234.607 533.021,234.746 533.6,234.885C532.636,237.844 530.876,236.527 530.92,236.421C530.987,236.261 530.99,236.277 531.864,234.468Z" style="fill:rgb(226,226,226);fill-opacity:0.14;"/>
        <path d="M77.172,320.269C77.936,320.696 78.7,321.124 79.465,321.551C75.444,322.888 75.785,321.079 75.931,320.83C76.161,320.438 76.942,320.661 77.172,320.269Z" style="fill:white;fill-opacity:0.24;"/>
        <path d="M71.387,192.041C71.497,191.912 71.421,191.683 71.53,191.554C71.635,191.431 72.586,190.311 73.377,190.746C73.377,190.746 73.53,192.365 73.543,192.506C72.825,192.351 72.106,192.196 71.387,192.041Z" style="fill:white;fill-opacity:0.31;"/>
        <path d="M173.444,9.777C173.708,10.044 173.971,10.31 174.235,10.577C174.053,10.931 173.87,11.284 173.687,11.638C172.927,11.317 172.168,10.997 171.408,10.676C172.087,10.377 172.765,10.077 173.444,9.777Z" style="fill:rgb(254,254,254);fill-opacity:0.22;"/>
        <path d="M283.596,317.588C283.91,318.16 284.225,318.732 284.539,319.305C284.386,319.299 282.62,319.235 282.62,319.235C281.232,318.716 282.378,318.346 283.596,317.588Z" style="fill:rgb(238,238,238);fill-opacity:0.27;"/>
        <path d="M97.58,105.652C98.4,105.607 97.774,104.703 98.535,104.661C98.63,104.656 99.05,104.632 99.312,105.556C99.379,105.793 98.907,105.976 98.974,106.213C98.509,106.026 98.045,105.839 97.58,105.652Z" style="fill:rgb(222,222,222);fill-opacity:0.23;"/>
        <path d="M471.921,28.961C471.758,29.492 471.595,30.023 471.432,30.555C471.43,30.445 470.344,30.169 471.921,28.961Z" style="fill:white;fill-opacity:0.51;"/>
        <path d="M386.147,316.919C386.926,316.796 387.705,316.673 388.484,316.551C387.294,316.937 387.361,317.03 386.147,316.919Z" style="fill:white;fill-opacity:0.54;"/>
    </g>
    <g id="Untitled---8-June-2026-12.45.13.png" serif:id="Untitled - 8 June 2026 12.45.13.png" transform="matrix(1.210344,0,0,1.210344,501.413389,229.630418)">
        <path d="M191.499,2.036C205.333,2.115 206.039,2.041 206.574,3.461C207.12,4.913 206.728,4.938 206.247,6.406C206.049,7.013 206.101,7.019 205.787,9.544C205.746,9.876 205.657,10.201 205.562,10.522C204.481,14.171 204.686,14.217 204.588,14.532C204.119,16.03 204.095,16.002 203.822,17.556C203.493,19.427 203.04,19.315 202.883,21.53C202.703,24.085 202.054,23.958 201.872,26.529C201.698,28.995 201.186,29.151 200.902,30.557C200.611,31.996 200.69,31.998 200.235,33.402C199.598,35.367 199.878,35.428 199.233,37.401C198.592,39.362 198.917,39.437 198.231,41.397C198.138,41.662 197.322,44.164 197.243,44.405C196.79,45.793 196.888,46.506 196.571,47.526C195.819,49.951 196.007,49.99 195.236,52.403C195.031,53.046 195.085,53.051 194.784,55.542C194.598,57.089 194.04,56.971 193.868,59.526C193.694,62.09 193.048,61.966 192.874,64.527C192.701,67.082 192.057,66.954 191.88,69.528C191.744,71.506 191.515,71.526 191.239,72.407C190.611,74.409 191.167,74.512 190.565,76.523C189.472,80.172 189.676,80.213 189.578,80.528C188.831,82.947 189.022,82.981 188.246,85.407C187.582,87.484 188.417,88.178 186.578,91.554C185.713,93.142 183.378,92.867 180.501,92.876C178.101,92.883 157.655,92.945 150.493,93.031C148.018,93.061 147.95,93.58 146.528,93.758C145.043,93.945 104.857,93.924 101.491,93.835C98.921,93.766 99.038,93.12 96.46,92.913C92.636,92.606 94.009,90.019 94.085,87.481C94.105,86.815 94.108,86.148 94.134,85.482C94.235,82.919 94.991,83.042 95.08,80.478C95.103,79.812 95.11,79.145 95.14,78.479C95.254,75.919 95.944,76.041 96.119,73.472C96.292,70.92 96.94,71.049 97.116,68.472C97.29,65.914 97.935,66.043 98.118,63.47C98.363,60.045 100.898,57.148 96.477,56.918C94.463,56.814 94.308,56.528 93.567,56.312C92.215,55.917 90.61,55.976 89.457,55.618C85.826,54.491 85.774,54.709 85.459,54.609C74.732,51.228 72.496,50.179 71.418,49.674C69.863,48.944 69.329,48.98 61.596,46.258C55.455,44.097 49.641,42.929 47.564,42.318C46.33,41.955 45.347,41.666 31.487,42.039C28.925,42.108 29.046,42.794 26.487,43.009C23.878,43.227 23.901,43.303 21.396,44.048C17.395,45.238 16.312,45.81 8.603,49.7C3.75,52.149 4.016,52.622 3.553,52.707C3.349,52.745 0.996,53.179 2.328,50.413C2.769,49.495 4.634,48.666 5.387,48.284C17.742,42.008 17.859,42.258 19.572,41.683C21.526,41.027 21.566,41.227 23.555,40.646C25.513,40.075 25.528,40.206 27.556,39.916C29.054,39.702 28.957,39.359 30.455,39.157C34.117,38.665 44.314,39.028 45.518,39.071C48.028,39.161 47.913,39.777 50.53,40.055C52.612,40.277 52.523,40.63 54.564,41.032C58.637,41.834 58.49,42.377 62.562,43.16C64.293,43.493 64.551,44.153 67.605,45.098C72.891,46.733 73.396,47.415 75.604,48.098C76.629,48.415 83.826,50.868 84.596,51.096C89.112,52.438 89.155,52.256 89.545,52.379C91.967,53.143 92.001,52.963 94.439,53.676C95.821,54.079 98.356,54.193 99.579,53.598C100.582,53.11 101.146,49.801 101.206,49.45C101.529,47.559 102.703,46.707 101.577,44.435C100.951,43.172 96.902,42.965 96.477,42.944C94.176,42.826 93.741,42.258 92.441,41.995C88.704,41.238 88.755,41.043 88.431,40.979C84.82,40.262 84.918,39.971 81.398,38.9C80.705,38.689 74.089,36.472 73.626,36.238C71.62,35.221 71.581,35.363 69.45,34.625C68.335,34.238 57.018,30.315 55.437,29.994C53.986,29.698 53.987,29.752 52.564,29.323C50.784,28.786 48.98,29.063 47.453,28.634C45.056,27.961 45.042,27.997 39.497,28.045C35.695,28.077 35.761,28.871 33.489,29.002C30.981,29.146 30.959,28.946 28.552,29.646C28.018,29.801 23.746,30.236 20.606,31.722C16.143,33.835 15.987,33.448 11.647,35.788C7.882,37.818 8.209,38.656 5.218,38.999C4.714,39.057 4.628,38.985 4.604,38.465C4.568,37.718 4.654,37.707 5.086,37.284C5.482,36.896 5.799,36.072 9.736,33.98C11.686,32.943 11.522,32.645 13.599,31.9C17.636,30.451 19.952,28.652 22.432,28.105C26.156,27.283 26.107,27.162 26.431,27.1C29.487,26.521 29.399,26.034 32.508,25.983C32.751,25.979 35.047,25.941 35.545,25.869C37.792,25.544 37.721,24.918 41.499,25.089C44.502,25.225 44.547,24.862 47.437,25.683C49.249,26.198 51.002,25.902 52.552,26.358C58.076,27.984 66.089,29.611 68.372,30.766C72.107,32.655 74.685,32.902 76.372,33.763C78.376,34.786 78.415,34.64 80.55,35.375C81.099,35.564 86.262,37.34 87.418,37.719C88.951,38.222 89.01,37.909 90.541,38.391C93.994,39.476 93.9,39.89 97.521,40.077C99.945,40.202 100.236,40.765 101.466,40.897C103.673,41.136 103.817,40.621 104.199,38.445C104.512,36.661 106.386,32.998 105.981,31.402C105.459,29.345 103.416,30.165 101.464,29.606C101.161,29.519 100.879,29.367 100.575,29.283C98.969,28.839 96.972,29.077 95.459,28.615C91.821,27.503 91.772,27.716 91.457,27.617C88.46,26.669 88.534,26.442 85.435,25.86C85.024,25.783 81.278,24.555 80.62,24.25C80.137,24.026 77.774,22.932 74.4,21.888C70.135,20.568 70.071,20.096 61.578,17.293C60.047,16.788 59.984,17.104 58.455,16.622C56.024,15.855 55.979,16.083 53.568,15.312C52.813,15.07 52.81,15.137 50.446,14.867C50.395,14.861 50.396,14.858 48.55,14.355C46.115,13.691 39.675,14.021 38.449,14.35C36.014,15.005 36.016,14.955 33.485,15.025C31.134,15.09 31.103,15.735 28.479,16.011C27.813,16.081 26.285,16.241 20.439,18.353C20.305,18.402 11.12,22.822 9.764,23.826C5.967,26.635 6.225,23.709 6.278,23.433C6.417,22.717 9.017,21.333 9.232,21.175C10.481,20.26 10.462,20.231 16.395,17.293C17.318,16.836 24.226,13.415 28.523,12.981C31.076,12.722 30.967,12.188 33.512,11.994C36.5,11.766 36.529,12.108 39.45,11.355C41.311,10.875 46.274,11.026 47.55,11.356C49.336,11.817 49.31,11.935 51.521,12.047C54.087,12.177 53.977,12.776 56.531,13.055C59.115,13.338 59.023,13.698 61.559,14.15C62.222,14.269 71.83,17.487 72.374,17.761C76.081,19.626 78.136,19.712 80.38,20.749C82.846,21.889 82.86,21.808 85.417,22.711C88.803,23.907 93.407,24.776 96.421,25.718C98.907,26.495 99.033,25.674 101.536,26.392C107.551,28.118 107.729,25.995 108.174,23.444C108.497,21.587 108.954,21.701 109.119,19.468C109.262,17.529 109.468,17.518 109.767,16.598C110.405,14.632 110.123,14.57 110.767,12.599C111.409,10.634 111.074,10.559 111.77,8.606C112.386,6.877 112.157,6.77 113.292,5.343C114.54,3.777 114.426,3.688 114.567,3.586C116.2,2.394 133.617,3.683 172.511,2.983C175.064,2.937 174.958,2.238 177.489,2.163C185.43,1.925 190.378,2.016 191.499,2.036ZM172.502,83.039C170.599,82.941 170.61,82.954 170.447,82.933C168.007,82.61 168.621,81.378 166.675,79.335C165.305,77.896 164.917,77.199 162.512,77.121C159.118,77.01 158.884,77.888 157.229,79.122C155.458,80.444 154.163,83.037 154.062,83.17C153.24,84.251 150.983,84.065 150.472,83.528C149.759,82.777 150.069,79.841 149.533,78.484C148.828,76.698 144.404,73.87 140.632,75.78C136.851,77.695 137.19,78.121 137.113,78.224C136.341,79.257 136.357,79.25 136.287,79.336C134.472,81.605 135.398,83.129 132.498,83.043C132.331,83.038 130.689,82.99 130.409,82.936C128.738,82.613 129.09,82.091 128.568,80.475C127.968,78.616 128.37,78.392 126.996,77.015C125.949,75.965 125.789,76.249 124.399,75.765C122.482,75.098 122.256,74.867 117.455,77.431C114.782,78.858 115.975,81.05 112.491,81.101C109.211,81.149 109.229,81.019 108.221,80.964C108.064,80.955 107.886,81.138 107.758,81.048C107.27,80.702 107.828,78.5 107.882,77.523C107.9,77.19 107.889,76.854 107.914,76.521C108.254,72.121 111.25,72.05 112.524,71.546C113.249,71.26 115.155,69.367 115.586,68.553C117.377,65.162 117.134,64.458 115.568,61.457C114.462,59.337 111.574,58.791 111.399,58.607C110.52,57.681 111.106,55.313 111.718,54.716C113.29,53.183 115.298,54.912 117.655,52.67C119.037,51.356 119.774,51.004 119.884,48.52C119.982,46.333 119.806,45.778 118.559,43.46C117.696,41.857 116.893,42.727 115.744,41.3C115.165,40.581 116.098,36.739 116.427,36.427C117.638,35.279 118.261,36.849 122.55,34.578C125.338,33.103 124.906,29.671 124.907,29.505C124.914,28.525 125.103,25.906 122.667,23.342C120.515,21.078 121.217,20.672 121.569,19.525C122.331,17.039 121.828,13.88 125.499,13.875C126.216,13.874 130.267,13.699 131.275,14.714C132.955,16.404 130.414,18.454 135.639,21.219C138.921,22.957 144.213,21.214 145.558,18.537C146.842,15.985 146.791,15.959 146.931,15.755C147.012,15.636 148.17,14.944 148.533,14.85C149.086,14.705 151.282,15.11 151.584,15.415C152.07,15.905 152.825,19.673 154.458,20.562C157.243,22.081 157.723,21.871 158.491,21.892C160.432,21.947 161.15,21.871 163.545,20.567C165.621,19.435 165.176,15.535 168.524,14.902C169.242,14.767 171.271,15.118 171.572,15.43C172.404,16.295 172.114,20.659 177.486,20.859C179.428,20.931 180.105,20.904 182.545,19.567C184.205,18.658 184.729,14.919 186.405,14.295C187.911,13.734 187.937,14.135 189.477,14.568C190.441,14.839 190.466,14.597 191.442,14.789C191.584,14.817 191.658,15.01 191.801,15.035C191.952,15.062 192.129,14.837 192.251,14.931C192.904,15.433 191.869,18.326 191.769,18.605C190.802,21.309 190.794,23.775 189.292,25.278C188.282,26.288 185.291,26.908 184.15,30.399C183.151,33.453 182.97,33.582 184.027,35.709C184.909,37.482 184.656,37.701 186.245,38.876C188.34,40.425 188.315,41.478 186.99,44.689C186.376,46.176 186.058,45.975 184.466,46.078C182.031,46.234 181.937,46.477 180.781,48.641C179.801,50.476 179.815,54.852 180.844,56.222C182.35,58.226 184.62,58.432 183.367,61.437C181.81,65.166 180.153,63.5 177.632,64.778C175.771,65.722 175.73,65.757 174.777,67.632C174.606,67.97 173.567,70.016 174.786,72.363C176.548,75.758 178.326,75.885 178.146,78.484C177.781,83.747 173.113,83.032 172.502,83.039Z" style="fill:white;fill-opacity:0.97;"/>
        <path d="M142.509,65.93C140.134,65.837 139.784,66.28 137.317,63.666C137.023,63.355 135.6,61.847 136.151,58.444C136.405,56.878 138.177,55.111 134.491,54.926C131.842,54.793 131.816,54.794 129.458,53.567C127.748,52.678 125.323,49.242 128.776,45.776C130.47,44.075 132.573,43.297 133.437,43.191C134.642,43.043 134.658,43.09 134.851,42.953C136.187,42.012 134.883,41.334 134.414,40.55C132.407,37.192 133.151,35.806 134.412,33.444C134.788,32.739 135.764,31.774 136.44,31.405C139.229,29.882 139.316,30.013 142.496,29.944C145.818,29.873 146.64,31.152 147.715,32.301C148.215,32.836 148.262,32.787 148.578,33.44C148.895,34.095 148.796,34.294 149.523,34.363C150.608,34.466 150.508,34.124 151.106,33.21C152.989,30.331 161.007,26.506 165.704,31.301C167.664,33.302 167.779,37.719 164.269,41.271C161.442,44.132 160.81,43.84 160.78,43.871C160.62,44.031 160.739,44.34 160.615,44.53C160.454,44.777 159.967,44.832 159.962,45.127C159.959,45.243 160.097,45.068 161.258,45.784C162.954,46.829 164.87,47.145 165.559,48.46C166.751,50.735 166.97,51.217 166.88,53.516C166.791,55.779 166.327,56.218 163.675,58.696C163.304,59.041 161.638,60.598 157.44,59.818C154.81,59.329 154.11,56.552 152.499,56.528C150.771,56.502 150.926,59.063 150.215,60.357C148.853,62.834 148.688,62.711 146.645,64.661C145.22,66.02 145.035,65.782 142.509,65.93ZM155.457,43.045C154.583,42.858 153.712,43.615 152.567,41.454C152.221,40.802 150.869,39.824 151.94,37.705C154.595,32.453 157.627,31.941 160.487,31.953C163.644,31.966 163.905,34.089 163.947,34.427C164.262,36.986 163.868,37.721 161.742,39.754C160.029,41.391 155.99,42.852 155.457,43.045ZM144.446,40.394C141.404,42.14 140.161,41.726 138.221,39.781C135.546,37.099 136.973,32.761 142.49,32.9C145.075,32.965 145.582,34.141 146.331,35.585C148.179,39.15 145.179,39.998 144.446,40.394ZM161.309,49.725C162.197,50.597 164.612,53.006 161.772,55.784C160.463,57.065 160.253,57.063 158.556,56.378C155.339,55.078 154.44,52.021 154.219,51.641C154.064,51.375 152.894,49.361 153.939,47.801C154.015,47.688 154.407,47.102 155.541,47.222C155.699,47.239 155.672,47.324 157.412,47.869C159.493,48.519 159.516,48.483 161.309,49.725ZM147.083,55.447C146.525,56.98 146.595,58.608 143.65,60.748C140.803,62.817 139.15,60.399 140.242,57.395C141.708,53.36 146.131,50.048 146.982,53.373C147.023,53.534 146.99,53.527 147.083,55.447ZM138.49,45.929C138.8,46.003 139.136,45.875 139.446,45.949C141.778,46.504 140.759,48.834 140.305,49.293C140.202,49.398 136.612,51.365 134.409,50.762C134.095,50.676 130.306,49.639 131.731,47.692C132.107,47.179 135.83,46.121 136.446,46.047C136.609,46.028 136.597,46.038 138.49,45.929Z" style="fill:white;fill-opacity:0.91;"/>
    </g>
    <g id="Untitled---8-June-2026-12.45.13--1-.png" serif:id="Untitled - 8 June 2026 12.45.13 (1).png" transform="matrix(1.210344,0,0,1.210344,548.616821,301.040738)">
        <path d="M43.499,95.989C-19.045,89.328 -3.257,13.978 34.474,3.432C99.205,-14.66 113.025,94.453 43.499,95.989ZM44.499,93.028C43.551,92.873 23.195,93.072 10.942,73.264C-18.412,25.807 55.994,-25.374 82.082,27.702C86.025,35.725 99.781,83.78 44.499,93.028Z" style="fill:white;fill-opacity:0.93;"/>
        <path d="M52.566,22.011C90.955,32.78 66.09,91.231 32.594,73.319C10.272,61.381 18.261,15.155 52.566,22.011ZM45.51,23.987C72.959,25.984 72.862,53.633 63.134,65.201C37.536,95.64 -5.356,39.185 45.51,23.987Z" style="fill:white;fill-opacity:0.81;"/>
    </g>
    <g id="IMG_3765.PNG" transform="matrix(1,0,0,1,31.599082,268.430075)">
        <g transform="matrix(1.208402,0,0,1.208402,-164.246212,-173.300429)">
            <path d="M454.965,319.379C455.19,321.463 455.173,321.375 455.412,323.525C455.758,326.629 455.173,327.289 456.501,327.251C458.317,327.199 457.355,326.23 457.195,319.418C457.841,286.668 470.646,180.713 471.15,163.483C472.443,119.287 471.569,119.225 472.469,115.491C474.171,108.425 472.918,90.884 473.474,88.493C474.45,84.288 472.829,84.342 472.999,81.528C473.072,80.322 473.735,69.373 469.284,66.883C450.044,56.121 434.944,20.329 445.36,12.31C455.077,4.83 467.75,36.592 468.06,37.782C471.08,49.388 470.276,33.659 470.524,32.506C471.643,27.316 472.224,14.692 478.784,5.68C482.388,0.729 487.566,2.267 488.17,2.888C495.801,10.741 490.5,37.605 489.916,40.566C488.024,50.152 483.236,59.446 488.642,52.743C496.536,42.957 520.483,31.2 521.058,34.534C521.28,35.818 521.008,36.099 507.706,43.867C505.755,45.007 477.785,64.286 478.894,75.462C485.069,137.65 480.099,177.187 479.898,181.531C479.165,197.426 470.403,253.847 469.929,264.527C468.883,288.105 457.822,330.712 460.029,346.556C462.71,365.805 462.341,365.824 462.577,367.495C463.415,373.425 460.707,385.846 463.539,386.048C472.315,386.674 472.27,382.468 573.505,384.166C577.523,384.234 578.617,384.474 579.04,380.453C580.433,367.196 585.539,351.773 586.106,338.474C586.168,337.032 586.73,323.86 587.352,320.484C591.254,299.313 586.484,289.732 586.337,288.519C586.074,286.34 585.851,284.486 581.156,261.57C571.657,215.199 566.397,214.023 554.54,160.488C544.259,114.066 528.205,75.237 523.103,67.769C521.153,64.916 510.519,71.08 512.592,65.558C514.188,61.304 515.142,60.807 515.47,60.474C530.195,45.586 544.407,102.82 547.921,110.315C552.24,119.526 560.858,154.563 560.566,155.524C559.744,158.227 563.864,168.627 567.676,183.458C579.68,230.16 578.477,230.434 579.722,234.435C585.676,253.579 587.202,260.774 587.751,262.428C591.651,274.178 591.109,282.404 592.5,282.406C593.225,282.407 593.015,282.013 594.023,273.467C597.767,241.726 602.484,94.014 602.07,78.516C601.677,63.781 593.697,67.82 592.625,67.02C588.588,64.007 603.189,58.149 605.673,72.472C607.415,82.516 601.203,227.843 601.001,239.492C600.888,246.042 600.323,245.902 600.056,252.466C599.616,263.277 598.441,263.115 598.064,270.46C597.965,272.385 597.047,290.252 596.564,294.507C595.769,301.524 604.619,333.409 615.848,379.43C617.168,384.836 618.932,383.386 624.464,383.046C624.784,383.026 626.94,382.303 627.481,382.295C675.419,381.529 675.338,381.373 679.501,381.347C736.871,380.986 740.739,384.161 739.805,379.425C738.974,375.213 735.528,347.725 726.336,300.524C709.73,215.259 707.206,215.892 686.149,131.572C681.579,113.27 676.313,104.055 675.511,101.495C675.498,101.452 661.363,64.004 656.029,66.565C652.833,68.099 651.679,66.691 654.015,63.937C663.999,52.164 677.662,96.352 680.907,103.32C684.844,111.773 689.54,121.856 712.741,215.446C722.233,253.733 742.514,356.067 744.672,380.461C744.963,383.751 767.283,378.042 769.457,382.524C769.657,382.935 785.28,443.809 786.673,450.467C801.673,522.128 819.496,589.202 820.626,590.398C822.517,592.398 848.014,589.825 875.509,590.4C876.398,590.418 877.633,591.256 877.93,592.354C894.137,652.278 899.226,658.307 907.406,688.532C928.649,767.028 930.356,766.511 931.909,773.406C933.853,782.039 919.168,778.094 908.489,777.881C860.623,776.928 860.675,776.71 856.516,776.728C853.426,776.742 855.563,785.644 848.152,800.319C834.37,827.607 805.865,830.792 805.523,830.812C798.912,831.211 799.035,831.682 798.486,831.546C792.261,830.01 791.389,831.003 789.508,830.473C772.117,825.569 772.405,824.78 772.378,824.767C737.058,807.371 739.459,781.343 739,779.618C738.718,778.556 738.059,776.079 725.523,776.976C714.535,777.762 714.585,777.336 703.527,777.789C701.214,777.884 701.705,780.389 701.472,781.493C693.852,817.613 671.441,824.024 663.686,827.915C658.055,830.741 649.345,830.943 648.41,831.223C644.661,832.351 625.833,829.004 615.358,822.778C601.93,814.798 596.976,807.984 595.773,806.329C582.75,788.418 588.759,786.045 585.364,777.539C584.725,775.939 584.261,776.591 582.508,776.671C577.442,776.904 577.546,776.55 572.5,776.629C571.941,776.637 572.055,776.537 565.506,776.577C563.063,776.592 563.976,777.768 562.752,782.556C561.89,785.925 556.118,808.506 539.172,819.077C518.227,832.142 503.614,829.827 494.519,827.444C480.633,823.808 472.248,817.677 470.544,816.431C446.89,799.137 448.448,781.124 448.143,778.552C447.788,775.545 446.534,776.694 443.52,776.753C440.178,776.819 443.301,784.703 434.135,802.306C423.433,822.861 399.253,829.601 398.549,829.742C384.68,832.528 383.621,830.975 382.476,830.876C359.503,828.897 347.447,818.464 337.43,808.568C327.223,798.483 326.292,782.961 326.147,780.549C325.91,776.599 312.481,780.272 311.552,777.473C305.714,759.892 300.346,736.125 299.526,732.492C290.321,691.734 289.164,692.124 279.013,651.641C277.468,645.478 277.174,645.621 275.594,639.47C273.397,630.92 248.476,533.925 248.239,532.566C247.788,529.985 243.615,532.052 240.576,532.817C184.967,546.804 172.348,536.023 168.527,536.867C167.639,537.063 157.69,549.559 146.336,554.146C138.125,557.463 113.948,560.69 137.495,553.485C157.732,547.293 163.642,536.15 163.61,535.488C163.518,533.563 144.42,527.367 147.207,510.436C150.126,492.695 187.84,491.314 171.16,531.36C169.955,534.255 172.107,534.094 179.425,535.774C193.74,539.059 247.132,530.935 246.545,526.496C246.044,522.704 245.484,522.856 233.553,480.483C231.549,473.365 208.668,392.108 208.577,391.495C208.156,388.681 221.174,391.264 220.875,387.473C218.713,360.09 227.492,344.727 229.121,332.449C232.546,306.648 250.32,268.426 255.212,254.411C257.279,248.489 264.395,228.105 286.858,182.678C288.793,178.764 309.582,136.722 310.795,133.627C314.066,125.279 334.365,92.313 338.386,87.411C344.302,80.201 345.103,72.765 358.65,64.77C366.661,60.041 370.298,69.034 365.542,69.732C361.855,70.273 362.193,70.978 359.184,73.15C351.875,78.424 352.808,80.054 347.618,86.589C341.982,93.685 292.385,188.432 287.792,197.644C271.477,230.361 245.921,296.867 242.407,308.465C239.855,316.888 233.486,336.15 232.692,338.551C228.294,351.854 228.155,386.738 229.645,388.396C231.456,390.412 232.008,389.432 263.499,389.396C290.183,389.365 290.162,390.125 292.477,390.005C294.556,389.897 315.211,388.823 318.492,389.529C324.481,390.817 349.322,388.505 367.513,389.102C374.555,389.333 374.485,389.264 381.488,389.069C384.609,388.982 405.36,388.405 420.462,387.045C447.027,384.652 448.334,387.476 453.446,386.094C454.417,385.832 455.364,385.576 454.02,373.533C451.955,355.041 452.237,355.08 450.392,336.512C450.241,334.995 448.963,322.13 448.997,317.505C449.065,308.226 444.743,290.159 440.313,263.529C426.792,182.255 437.469,176.53 420.244,107.559C410.827,69.855 402.461,69.752 402.231,68.557C401.86,66.622 402.781,66.319 407.521,65.628C408.638,65.466 412.44,64.911 416.503,76.499C433.219,124.18 434.16,163.645 439.675,197.47C444.482,226.951 451.915,299.03 454.965,319.379ZM670.206,718.494C669.364,718.996 669.346,718.764 668.522,719.29C663.37,717.286 632.141,703.17 603.453,731.451C587.948,746.736 586.403,766.122 586.137,769.452C585.806,773.613 567.855,770.071 554.574,771.83C549.561,772.494 549.566,770.57 544.58,771.772C543.409,772.054 443.162,772.412 442.358,771.666C439.923,769.407 444.404,761.71 432.812,741.337C429.705,735.877 419.794,726.615 418.545,725.448C402.613,710.56 356.751,705.713 335.114,742.273C321.017,766.093 330.334,772.855 323.469,773.205C320.301,773.366 316.7,774.807 315.487,770.506C314.165,765.82 313.522,766.046 310.667,754.465C294.466,688.736 294.063,688.95 276.845,623.43C276.522,622.199 257.976,547.309 256.73,543.437C255.601,539.93 254.002,533.328 253.788,532.443C252.819,528.44 254.644,529.05 258.518,527.547C269.119,523.435 278.645,518.599 286.93,513.663C311.031,499.303 324.645,480.344 302.825,498.649C289.826,509.554 272.113,519.188 254.437,525.279C250.402,526.669 251.208,521 246.696,507.445C245.467,503.753 222.979,421 216.702,402.441C214.22,395.103 214.927,394.739 215.551,394.658C218.086,394.33 218.068,395.266 247.5,394.22C248.112,394.198 248.109,394.206 358.5,393.631C370.016,393.571 369.921,393.22 381.489,393.751C408.008,394.969 407.886,391.939 447.501,391.642C452.356,391.606 452.843,389.365 456.601,392.364C457.6,393.161 457.692,391.119 472.507,390.85C495.784,390.428 497.765,388.921 508.514,390.403C509.488,390.538 509.481,389.67 534.492,389.936C536.641,389.959 536.447,390.643 538.492,390.663C555.232,390.825 576.299,388.293 577.057,390.658C577.252,391.266 577.183,391.931 577.324,392.554C578.375,397.203 580.677,389.637 585.497,389.653C589.559,389.666 588.05,392.071 591.25,401.576C591.396,402.011 610.621,475.395 615.282,490.557C620.749,508.339 634.004,571.695 642.586,606.473C668.029,709.588 667.867,709.565 670.206,718.494ZM735.494,386.958C742.652,388.277 765.588,385.516 766.174,386.732C767.076,388.601 767.771,396.104 777.137,429.574C781.528,445.266 804.251,553.062 813.283,582.565C815.693,590.435 814.963,590.839 814.355,591.174C813.106,591.864 812.934,590.59 796.542,591.949C793.669,592.187 793.687,590.97 760.505,591.997C742.09,592.566 711.761,592.359 711.59,592.259C709.392,590.972 672.164,434.821 660.727,399.438C657.246,388.666 657.855,388.323 658.674,387.861C660.96,386.573 729.348,386.927 735.494,386.958ZM678.505,596.958C706.552,596.874 706.481,597.022 734.5,596.911C766.686,596.782 767.519,595.743 768.138,597.6C771.256,606.958 776.385,627.976 777.033,630.635C786.962,671.324 787.243,671.187 798.041,711.645C802.527,728.457 810.184,761.386 811.809,764.37C812.029,764.773 813.231,766.98 814.163,769.599C815.039,772.06 809.387,771.462 798.501,771.4C741.996,771.08 704.034,773.441 702.384,772.653C701.076,772.028 703.455,744.718 677.847,725.051C675.477,723.23 675.419,719.937 668.456,691.514C647.689,606.74 647.822,606.756 645.904,599.417C645.022,596.041 665.561,598.917 678.505,596.958ZM879.501,627.958C883.247,628.428 883.324,628.883 884.515,632.495C902.979,688.494 907.493,706.079 909.159,712.571C923.23,767.39 926.105,766.616 926.266,771.524C926.308,772.794 925.999,774.501 910.45,772.96C893.494,771.279 880.269,772.807 871.451,771.959C854.71,770.35 854.485,771.798 822.51,771.366C819.818,771.33 820.212,766.521 819.176,764.665C817.461,761.592 816.183,759.302 806.879,722.429C803.642,709.598 786.302,650.43 781.9,630.44C780.317,623.25 797.136,630.494 807.52,626.534C812.154,624.767 801.027,602.248 801.84,597.552C802.475,593.886 826.443,597.166 846.516,594.979C849.886,594.612 849.062,599.145 849.864,600.211C851.299,602.118 850.993,602.182 851.586,604.472C856.412,623.095 857.005,622.907 857.355,624.54C858.33,629.08 868.834,627.884 879.501,627.958ZM633.509,387.939C647.661,387.774 651.875,387.62 652.617,388.4C652.852,388.646 666.528,438.697 670.54,454.487C675.618,474.479 675.632,474.407 680.607,494.467C683.724,507.032 704.853,589.065 705.167,590.539C705.796,593.49 703.456,592.247 667.5,592.409C657.463,592.454 657.556,593.054 647.492,593.145C642.076,593.194 642.64,582.994 641.485,579.505C639.056,572.167 626.296,509.342 622.44,497.519C621.96,496.045 601.527,418.376 598.471,408.51C597.806,406.361 593.815,392.676 593.827,391.489C593.85,389.294 598.674,389.57 608.501,389.583C613.206,389.59 613.501,392.184 615.491,390.491C619.585,387.008 622.509,389.817 633.509,387.939ZM364.972,771.541C366.305,767.264 365.717,766.991 368.514,763.51C380.178,748.991 401.69,757.351 402.32,771.506C403.53,798.691 364.249,801.476 364.972,771.541ZM625.172,770.445C635.63,741.206 672.751,760.808 660.051,783.248C652.647,796.332 627.047,798.139 624.926,774.519C625.544,774.422 625.871,773.574 626.49,773.478C631.964,772.626 632.032,773.613 632.438,773.365C635.735,771.352 627.921,771.509 627.499,771.517C625.339,771.561 625.717,770.696 625.172,770.445ZM594.227,320.956C594.461,321.557 594.424,321.568 603.292,359.545C608.542,382.028 609.402,383.284 607.468,383.4C586.97,384.619 585.575,384.516 585.95,382.525C590.626,357.731 587.841,357.448 591.944,332.554C592.761,327.597 592.301,327.635 592.909,322.58C592.929,322.414 593.099,322.552 594.227,320.956ZM488.039,24.491C487.481,27.68 482.464,56.362 477.568,63.585C473.407,69.724 472.61,20.961 481.589,9.566C484.168,6.293 486.151,5.584 487.125,9.581C488.866,16.722 487.972,16.771 488.039,24.491ZM172.029,514.501C171.943,515.89 171.417,524.467 167.108,531.192C164.514,535.243 142.246,516.186 153.707,505.725C158.692,501.174 170.851,498.194 172.029,514.501ZM472.138,62.519C471.375,63.157 471.444,63.118 471.375,63.157C470.965,63.387 470.941,63.098 470.554,63.315C441.422,37.591 444.776,12.07 450.403,16.626C462.047,26.05 469.307,57.153 472.138,62.519ZM477.508,117.502C477.781,117.695 478.19,117.002 478.463,117.195C481.123,119.084 477.618,178.396 474.217,205.463C464.92,279.449 466.356,279.608 464.695,285.869L463.2,285.548C467.449,220.365 474.344,220.925 477.508,117.502ZM333.473,100.432L334.932,100.576C312.29,140.059 286.163,191.653 305.849,150.538C310.824,140.148 326.249,109.821 333.473,100.432ZM439.4,225.486C439.984,225.542 440.568,225.597 441.152,225.652C442.021,237.877 442.458,237.751 443.506,249.913L442.512,249.503C441.688,247.723 439.606,231.561 439.4,225.486ZM224.351,373.443C224.562,373.929 225.428,373.888 225.638,374.373C226.026,375.265 225.961,375.241 226.4,386.504C226.694,394.044 223.9,382.875 223.874,382.497C223.825,381.773 223.584,378.24 224.351,373.443ZM454.767,341.066C455.33,343.097 455.968,343.035 455.27,351.377C452.516,348.677 453.84,348.143 453.597,342.522C453.541,341.218 454.27,341.686 454.767,341.066ZM625.172,770.445C625.717,770.696 625.339,771.561 627.499,771.517C627.921,771.509 635.735,771.352 632.438,773.365C632.032,773.613 631.964,772.626 626.49,773.478C625.871,773.574 625.544,774.422 624.926,774.519C625.008,773.161 625.09,771.803 625.172,770.445ZM439.4,225.486C437.336,217.82 439.035,217.455 439.527,217.822C440.04,218.204 439.54,218.374 441.152,225.652C440.568,225.597 439.984,225.542 439.4,225.486ZM463.2,285.548L464.695,285.869C464.54,286.97 464.467,291.084 463.484,291.669C463.062,291.919 461.98,291.696 463.2,285.548ZM442.512,249.503L443.506,249.913C443.773,250.793 444.219,250.598 444.261,252.395C444.607,267.391 442.522,249.773 442.512,249.503ZM437.758,214.365C437.731,214.144 437.465,211.95 437.687,211.59C437.839,211.344 440.187,210.713 438.721,215.041C438.4,214.816 438.079,214.59 437.758,214.365ZM333.473,100.432C334.424,98.8 334.362,98.756 334.5,98.669C335.811,97.841 335.174,99.107 334.932,100.576L333.473,100.432Z" style="fill:rgb(255,212,51);fill-opacity:0.99;"/>
        </g>
        <g transform="matrix(1.208402,0,0,1.208402,-164.246212,-173.300429)">
            <path d="M839.498,676.042C847.055,675.442 846.975,675.449 854.5,675.41C875.468,675.302 885.756,674.046 887.387,679.553C895.461,706.816 897.761,708.716 902.475,728.507C903.98,734.828 885.102,734.643 872.501,734.629C839.383,734.592 825.808,735.484 824.338,734.935C819.487,733.123 819.828,729.224 819.182,726.558C813.92,704.837 812.894,705.183 807.547,683.487C805.776,676.303 811.553,675.834 839.498,676.042ZM849.508,696.944C852.525,696.902 886.334,696.442 887.22,696.903C887.881,697.247 891.276,708.64 891.24,709.496C891.108,712.608 889.647,711.246 886.499,711.265C858.972,711.427 859.051,710.781 831.48,712.193C824.774,712.536 821.626,714.731 820.887,710.431C819.722,703.643 818.951,703.926 818.087,699.532C817.432,696.193 837.072,698.886 849.508,696.944ZM847.501,716.949C858.046,717.495 857.998,716.66 868.502,716.934C884.011,717.338 890.697,716.619 892.47,716.784C895.086,717.028 896.369,726.859 896.111,727.281C894.385,730.113 835.054,728.811 832.489,729.466C824.77,731.438 824.941,728.28 823.493,720.502C822.583,715.608 835.465,718.922 847.501,716.949ZM863.5,679.966C869.753,680.994 870.957,679.353 874.581,680.228C879.965,681.527 882.431,677.967 883.81,683.399C885.163,688.729 886.954,692.047 883.504,691.367C881.91,691.053 850.019,691.34 849.491,691.471C846.09,692.314 820.652,693.119 818.511,693.55C813.961,694.465 812.508,684.266 813.613,682.626C816.022,679.052 848.853,681.962 863.5,679.966Z" style="fill:rgb(255,212,51);fill-opacity:0.98;"/>
        </g>
        <g transform="matrix(0.710809,0,0,0.694275,865.67452,-265.42568)">
            <path d="M57.357,208.677C56.274,208.128 48.379,204.123 48.278,196.511C47.962,172.585 78.88,177.485 80.837,187.149C81.471,190.279 81.994,186.962 82.815,185.736C95.9,166.219 117.023,179.822 108.931,195.687C107.069,199.336 109.378,198.987 111.549,199.151C126.803,200.306 122.416,225.676 105.31,226.042C102.979,226.092 106.181,230.99 105.676,235.516C103.994,250.562 91.81,254.441 81.668,249.188C72.877,244.635 78.646,234.394 72.683,237.854C59.843,245.302 43.682,234.56 47.53,222.509C51.489,210.11 56.839,211.18 58.096,210.117C58.343,209.909 57.098,209.716 57.344,209.508C57.349,209.231 57.353,208.954 57.357,208.677ZM67.52,207.014C66.526,206.834 58.145,205.317 55.835,202.228C42.99,185.048 77.443,173.469 78.852,197.493C78.955,199.239 75.154,200.032 73.834,200.898C70.01,203.408 72.041,206.047 67.52,207.014ZM51.962,224.546C52.418,223.133 55.273,214.295 65.63,211.992C70.633,210.879 69.03,215.003 72.42,218.574C75.609,221.934 76.367,220.762 78.437,222.57C80.966,224.778 68.9,237.575 61.423,235.784C50.214,233.099 51.985,224.924 51.962,224.546ZM79.956,236.507C80.059,235.942 80.35,232.36 82.212,227.381C85.849,217.654 91.928,223.247 92.508,223.487C107.31,229.612 99.851,246.661 90.475,247.032C80.834,247.414 80.051,237.694 79.956,236.507ZM104.5,222.033C98.257,221.318 91.996,218.296 93.999,215.789C97.333,211.616 93.035,207.198 97.574,205.756C99.031,205.293 116.017,199.898 116.318,209.511C116.462,214.12 115.441,216.4 110.396,220.354C109.626,220.958 109.561,220.793 104.5,222.033ZM83.995,195.506C90.593,173.776 109.109,180.868 104.779,193.602C103.349,197.809 95.46,204.634 92.395,201.612C88.364,197.637 85.725,200.071 83.995,195.506Z" style="fill:rgb(255,212,51);fill-opacity:0.99;"/>
        </g>
        <g transform="matrix(0.856087,0,0,0.856087,217.62363,93.10109)">
            <path d="M864.349,336.064C864.463,334.799 864.739,334.82 864.095,333.684C858.597,323.993 866.566,312.826 876.524,314.324C885.54,315.681 886.163,323.701 888.646,321.839C897.448,315.241 913.871,316.766 910.71,340.538C910.106,345.082 905.372,345.281 908.422,349.548C908.935,350.265 912.861,358.29 906.61,364.608C898.522,372.784 892.497,363.244 890.468,369.484C888.86,374.43 878.741,380.383 869.327,374.831C862.283,370.677 863.312,364.989 863.302,362.507C863.291,359.647 859.597,361.028 857.51,360.465C841.236,356.07 846.098,343.881 848.384,341.399C853.095,336.285 854.643,335.968 864.349,336.064ZM907.061,332.554C907.076,342.417 906.439,344.196 899.512,344.186C895.075,344.18 893.855,345.771 892.141,341.652C889.287,334.794 884.808,335.483 885.907,332.661C887.887,327.579 897.779,317.627 905.353,327.606C905.353,327.606 906.925,332.158 907.061,332.554ZM876.4,354.861C881.09,356.084 881.723,355.502 884.146,359.682C885.656,362.287 888.671,363.893 885.133,369.232C879.972,377.021 858.043,368.993 872.195,355.176C874.229,353.19 875.497,354.673 876.4,354.861ZM861.5,339.968C865.02,340.652 865.102,340.17 868.274,341.878C869.084,342.314 870.887,350.872 869.226,352.145C865.602,354.922 865.676,354.972 865.324,355.151C853.168,361.327 840.723,342.365 861.5,339.968ZM882.08,331.461C880.384,337.88 866.898,338.246 866.753,328.486C866.74,327.571 866.645,321.176 873.416,319.194C876.744,318.22 881.817,322.429 882.172,325.556C882.225,326.025 882.165,325.993 882.08,331.461ZM898.476,364.019C891.022,363.209 892.173,361.077 889.479,357.514C889.378,357.38 889.343,357.471 887.956,356.077C886.392,354.506 888.236,353.543 891.144,350.188C896.465,344.052 915.285,358.755 898.476,364.019Z" style="fill:rgb(255,212,51);fill-opacity:0.99;"/>
        </g>
        <g transform="matrix(0.554623,0,0,0.656388,381.276288,29.07427)">
            <path d="M906.461,217.977C894.426,216.911 885.029,211.766 883.33,210.836C881.615,209.897 878.003,206.943 895.798,189.811C911.457,174.735 932.422,180.756 941.323,186.795C954.016,195.406 956.293,184.333 960.51,182.52C963.9,181.062 966.504,187.82 950.675,195.852C945.319,198.569 933.395,222.924 906.461,217.977ZM944.163,192.782C943.897,193.266 943.631,193.749 943.365,194.232C926.352,197.662 899.159,200.96 895.323,203.125C886.971,207.84 896.337,207.045 896.647,206.952C916.234,201.099 917.641,203.911 938.502,199.618C938.667,199.584 942.083,198.881 939.478,201.486C925.924,215.038 915.274,214.562 906.534,214.015C905.219,213.932 888.435,209.285 886.86,208.104C886.237,207.637 885.664,206.961 891.711,199.674C914.584,172.115 939.162,190.501 944.163,192.782Z" style="fill:rgb(255,212,51);fill-opacity:0.99;"/>
        </g>
        <g transform="matrix(0.608159,-0.243233,0.243233,0.608159,-379.307354,-126.577983)">
            <path d="M906.461,217.977C894.426,216.911 885.029,211.766 883.33,210.836C881.615,209.897 878.003,206.943 895.798,189.811C911.457,174.735 932.422,180.756 941.323,186.795C954.016,195.406 956.293,184.333 960.51,182.52C963.9,181.062 966.504,187.82 950.675,195.852C945.319,198.569 933.395,222.924 906.461,217.977ZM944.163,192.782C943.897,193.266 943.631,193.749 943.365,194.232C926.352,197.662 899.159,200.96 895.323,203.125C886.971,207.84 896.337,207.045 896.647,206.952C916.234,201.099 917.641,203.911 938.502,199.618C938.667,199.584 942.083,198.881 939.478,201.486C925.924,215.038 915.274,214.562 906.534,214.015C905.219,213.932 888.435,209.285 886.86,208.104C886.237,207.637 885.664,206.961 891.711,199.674C914.584,172.115 939.162,190.501 944.163,192.782Z" style="fill:rgb(255,212,51);fill-opacity:0.99;"/>
        </g>
        <g transform="matrix(1,0,0,1,50.654795,-181.939217)">
            <path d="M826.501,298.026C868.926,297.93 885.305,285.774 892.423,282.417C897.43,280.056 886.437,282.044 874.28,274.891C859.213,266.025 868.597,246.408 890.573,252.193C890.609,252.202 898.729,255.009 901.172,259.665C908.062,272.794 899.116,276.811 903.231,276.982C915.164,277.477 938.866,269.582 950.448,258.444C964.45,244.979 965.373,244.226 966.127,245.658C966.879,247.087 952.481,270.304 917.656,278.997C903.652,282.492 900.784,279.866 898.682,281.735C857.818,318.065 772.921,295.57 784.211,290.512C787.857,288.879 789.012,295.4 826.501,298.026ZM884.492,254.953C885.796,255.188 895.824,256.998 898.754,263.374C900.954,268.162 901.27,278.117 893.535,277.03C864.594,272.961 867.737,258.116 878.556,255.781C881.526,255.14 881.457,255.216 884.492,254.953Z" style="fill:rgb(255,212,51);fill-opacity:0.99;"/>
        </g>
        <path d="M98.461,634.981C92.206,633.768 81.787,632.605 83.567,626.519C85.675,619.308 88.592,617.097 89.118,616.256C97.244,603.279 118.711,601.724 126.592,609.399C131.308,613.991 136.204,606.308 143.469,603.429C148.597,601.397 146.568,608.878 133.714,614C128.429,616.106 128.876,622.129 125.568,625.563C117.775,633.654 111.354,637.327 98.461,634.981ZM116.455,608.982C125.494,611.979 124.716,613.726 124.087,614.108C117.853,617.897 94.057,620.627 93.654,622.549C92.259,629.205 123.345,618.579 123.466,618.636C125.845,619.754 117.565,629.745 108.44,631.107C102.363,632.013 87.727,630.164 87.902,627.58C87.989,626.29 92.828,615.656 100.66,611.822C109.24,607.623 112.44,608.902 116.455,608.982Z" style="fill:rgb(255,212,51);fill-opacity:0.99;"/>
        <g transform="matrix(1,0,0,1,32.631603,34.847536)">
            <path d="M54.505,519.033C54.965,519.044 65.601,519.289 59.331,522.173C52.417,525.353 50.032,518.653 39.341,524.178C23.098,532.572 -2.493,506.789 3.874,501.886C8.192,498.561 22.5,491.997 32.698,497.066C41.286,501.336 40.961,503.567 47.771,515.351C49.826,518.907 50.434,518.216 54.505,519.033ZM41.452,513.512C40.758,514.547 40.68,514.46 39.464,514.615C30.559,508.985 6.749,501.195 9.314,506.417C10.425,508.678 18.519,509.501 25.332,512.851C37.849,519.007 38.204,518.131 39.189,518.829C39.409,518.985 38.604,519.393 38.824,519.549L38.404,520.317C36.302,520.491 36.343,520.433 34.354,521.008C24.25,523.933 7.662,508.92 6.917,505.403C6.172,501.887 25.549,496.211 33.383,502.649C38.57,506.912 40.983,512.841 41.452,513.512ZM41.452,513.512C41.881,514.506 42.264,514.317 42.25,515.362C42.222,517.435 41.283,515.521 39.464,514.615C40.68,514.46 40.758,514.547 41.452,513.512Z" style="fill:rgb(255,212,51);fill-opacity:0.99;"/>
        </g>
        <g transform="matrix(1,0,0,1,27.251965,-26.315786)">
            <path d="M805.519,33.053C806.796,33.206 810.819,33.69 818.553,42.453C818.726,42.65 820.963,46.85 822.084,43.347C822.124,43.219 824.411,31.829 830.442,30.239C844.632,26.497 834.05,66.442 826.536,66.906C815.384,67.595 788.069,33.992 805.519,33.053Z" style="fill:rgb(255,212,51);fill-opacity:1;"/>
        </g>
        <g transform="matrix(1,0,0,1,-723.899818,-176.183216)">
            <path d="M805.519,33.053C806.796,33.206 810.819,33.69 818.553,42.453C818.726,42.65 820.963,46.85 822.084,43.347C822.124,43.219 824.411,31.829 830.442,30.239C844.632,26.497 834.05,66.442 826.536,66.906C815.384,67.595 788.069,33.992 805.519,33.053Z" style="fill:rgb(255,212,51);fill-opacity:1;"/>
        </g>
        <g transform="matrix(1,0,0,1,19.494372,-186.628005)">
            <path d="M53.236,409.342C57.384,397.357 65.435,401.108 66.474,403.515C70.566,412.995 63.932,423.707 62.498,428.499C59.768,437.629 41.411,426.844 37.606,418.445C31.246,404.405 42.749,397.674 51.681,410.245C53.776,410.219 53.181,409.401 53.236,409.342Z" style="fill:rgb(255,212,51);fill-opacity:1;"/>
        </g>
        <g transform="matrix(1,0,0,1,-403.087152,-128.289322)">
            <path d="M916.964,514.5C917.117,524.521 912.942,536.152 905.486,534.644C881.984,529.889 881.785,505.611 895.491,509.524C896.806,509.899 899.891,512.593 900.211,512.945C903.74,516.822 902.792,501.704 912.585,504.153C916.486,505.129 916.919,513.603 916.964,514.5Z" style="fill:rgb(255,212,51);fill-opacity:1;"/>
        </g>
        <g transform="matrix(1,0,0,1,-182.511286,-705.262957)">
            <path d="M916.964,514.5C917.117,524.521 912.942,536.152 905.486,534.644C881.984,529.889 881.785,505.611 895.491,509.524C896.806,509.899 899.891,512.593 900.211,512.945C903.74,516.822 902.792,501.704 912.585,504.153C916.486,505.129 916.919,513.603 916.964,514.5Z" style="fill:rgb(255,212,51);fill-opacity:1;"/>
        </g>
        <g transform="matrix(1,0,0,1,-34.300294,5.263076)">
            <path d="M552.501,622.929C534.89,623.563 530.285,622.227 528.521,621.465C524.215,619.604 528.587,613.271 530.331,599.479C530.514,598.033 537.418,571.689 539.288,561.463C539.73,559.046 544.319,533.961 546.637,531.639C546.932,531.343 550.742,529.828 550.798,534.501C550.855,539.223 546.081,559.707 545.677,562.527C545.186,565.965 544.474,565.76 534.856,604.569C532.165,615.428 531.75,616.163 532.696,616.248C534.089,616.373 534.387,616.419 552.46,616.953C554.388,617.01 554.417,617.019 559.563,617.319C559.841,617.335 561.602,617.895 560.787,620.578C559.784,623.881 552.65,622.923 552.501,622.929Z" style="fill:rgb(255,212,51);fill-opacity:0.98;"/>
        </g>
        <g transform="matrix(1,0,0,1,-34.300294,5.263076)">
            <path d="M518.924,534.529C517.454,550.755 510.887,573.266 509.691,582.525C509.502,583.988 509.068,583.846 505.867,600.559C503.85,611.09 501.333,627.972 496.721,621.334C495.825,620.044 504.299,581.713 505.343,572.482C505.408,571.915 511.206,545.092 512.533,540.511C512.756,539.742 515.11,531.619 516.448,531.307C519.026,530.705 518.758,531.86 518.924,534.529Z" style="fill:rgb(255,212,51);fill-opacity:0.98;"/>
        </g>
        <g transform="matrix(1,0,0,1,-34.300294,5.263076)">
            <path d="M476.961,549.505C477.149,576.297 475.69,592.557 476.587,597.488C476.59,597.505 477.023,617.449 476.183,619.355C474.5,623.175 470.447,621.762 470.288,618.518C469.835,609.277 470.935,592.753 469.358,591.83C468.864,591.542 451.018,591.403 449.68,591.996C445.86,593.689 436.024,622.91 431.514,622.43C426.981,621.947 430.474,619.449 440.866,595.663C442.455,592.026 442.767,592.221 463.118,551.316C470.048,537.388 475.85,524.447 477.522,538.498C477.627,539.373 478.024,542.712 476.961,549.505ZM471.552,543.555C472.082,543.877 472.613,544.198 473.143,544.519C467.772,572.764 473.763,586.338 468.49,586.3C462.36,586.257 459.279,585.705 453.51,586.932C449.98,587.682 453.814,582.106 455.166,579.335C468.512,551.979 469.971,547.684 470.948,544.808C470.983,544.703 470.948,544.808 471.552,543.555ZM471.552,543.555C472.591,542.421 473.089,543.054 473.143,544.519C472.613,544.198 472.082,543.877 471.552,543.555Z" style="fill:rgb(255,212,51);fill-opacity:0.99;"/>
        </g>
        <g transform="matrix(1,0,0,1,-34.300294,5.263076)">
            <path d="M388.324,603.342C389.706,599.82 388.839,598.162 397.126,582.32C398.818,579.086 397.831,578.652 417.103,541.309C417.884,539.795 419.289,534.008 424.319,531.136C428.548,528.722 429.742,532.957 429.731,536.501C429.69,549.731 417.159,619.821 414.169,622.094C413.371,622.7 408.585,623.593 408.849,619.567C408.963,617.811 413.724,601.117 414.332,592.48C414.351,592.204 416.822,584.253 417.33,576.483C417.367,575.908 418.803,571.177 419.389,564.487C419.841,559.329 426.479,530.372 421.264,544.137C419.06,549.954 410.856,565.835 409.896,567.694C408.17,571.034 408.952,571.355 390.157,610.332C386.394,618.136 387.165,620.73 382.533,619.435C379.661,618.633 382.603,602.152 380.505,592.499C379.842,589.453 380.875,560.482 379.48,554.506C378.778,551.499 381.784,526.676 378.151,540.244C370.117,570.251 363.062,600.313 361.831,605.557C359.491,615.528 358.851,622.549 353.428,620.657C348.79,619.039 354.366,613.611 364.134,573.431C364.883,570.348 371.749,542.107 375.152,535.337C376.948,531.765 376.459,530.832 380.442,530.164C384.623,529.463 383.066,532.083 385.488,542.503C386.392,546.39 385.016,546.519 386.573,555.492C386.779,556.677 386.455,556.688 387.647,570.49C388.886,584.842 387.729,597.187 387.512,599.497C387.42,600.488 386.009,603.991 387.5,603.95C387.841,603.94 387.983,603.352 388.324,603.342Z" style="fill:rgb(255,212,51);fill-opacity:0.98;"/>
        </g>
        <g transform="matrix(1,0,0,1,-26.315847,0)">
            <path d="M67.96,68.491C66.752,85.255 41.101,77.98 53.018,64.058C57.426,58.909 67.162,58.819 67.96,68.491ZM61.385,73.342C52.807,76.937 50.152,67.972 58.382,65.166C61.854,63.983 66.796,68.345 61.385,73.342Z" style="fill:rgb(255,212,51);fill-opacity:0.99;"/>
        </g>
        <g transform="matrix(1,0,0,1,956.57776,610.525144)">
            <path d="M67.96,68.491C66.752,85.255 41.101,77.98 53.018,64.058C57.426,58.909 67.162,58.819 67.96,68.491ZM61.385,73.342C52.807,76.937 50.152,67.972 58.382,65.166C61.854,63.983 66.796,68.345 61.385,73.342Z" style="fill:rgb(255,212,51);fill-opacity:0.99;"/>
        </g>
        <path d="M204.565,633.05C217.092,636.287 204.939,652.16 198.424,645.578C193.937,641.045 198.033,632.236 204.565,633.05ZM201.617,638.603C201.872,638.442 206.965,635.226 204.795,640.641C203.794,643.138 198.767,642.823 201.617,638.603Z" style="fill:rgb(255,212,51);fill-opacity:0.99;"/>
        <g transform="matrix(1,0,0,1,-412.575843,-75.657747)">
            <path d="M839.963,432.505C839.043,444.255 823.338,437.133 829.429,427.431C829.556,427.229 839.062,420.325 839.963,432.505ZM835.319,430.682C836.972,437.306 832.366,433.138 832.344,432.511C832.263,430.192 833.071,430.249 835.319,430.682Z" style="fill:rgb(255,212,51);fill-opacity:1;"/>
        </g>
        <path d="M189.975,157.512C189.105,166.881 176.25,166.069 178.255,155.439C179.018,151.396 185.771,151.903 186.484,151.957C190.386,152.25 189.705,153.584 189.975,157.512ZM182.667,155.698C182.997,155.552 187.792,153.428 186.771,157.555C185.768,161.609 178.87,160.425 182.667,155.698Z" style="fill:rgb(255,212,51);fill-opacity:1;"/>
        <g transform="matrix(1,0,0,1,-132.970909,-64.144532)">
            <path d="M1013.924,522.502C1012.72,533.801 998.353,523.878 1005.69,518.803C1013.077,513.693 1013.855,521.783 1013.924,522.502Z" style="fill:rgb(255,212,51);fill-opacity:0.99;"/>
        </g>
    </g>
    <g id="SLO.png" transform="matrix(1,0,0,1,266,678)">
        <path d="M142.271,4.004C188.989,-9.075 166.468,69.331 154.693,83.63C143.377,101.018 125.597,95.956 123.255,94.966C119.962,92.766 120.08,92.713 119.416,92.587C118.426,91.59 116.642,89.833 116.4,89.595C116.336,89.196 111.102,83.609 110.253,75.513C110.253,75.513 107.931,56.571 117.11,33.339C118.533,29.739 125.323,9.772 142.271,4.004ZM154.418,8.619C170.251,13.246 160.785,50.609 160.785,50.609C159.119,62.488 148.573,79.744 143.399,84.386C130.291,96.144 120.973,83.071 120.587,82.435C118.947,80.373 113.734,73.816 118.839,49.556C127.844,6.767 152.88,7.56 154.418,8.619Z" style="fill:rgb(251,209,50);fill-opacity:0.94;"/>
        <path d="M38.494,3.193C40.34,3.568 57.654,7.084 54.471,20.484C53.637,23.995 49.506,20.289 49.241,19.658C48.06,16.855 47.183,15.473 45.379,13.603C32.148,-0.109 11.79,25.578 31.6,44.401C31.808,45.456 31.947,45.246 32.865,46.22C33.16,46.592 33.455,46.965 33.75,47.337C35.139,49.112 55.447,68.631 40.713,88.649C34.2,97.498 21.294,101.296 13.656,96.191C13.448,96.052 1.011,87.818 2.775,80.629C3.051,80.15 5.423,76.033 9.58,79.418C9.815,80.434 9.903,80.253 10.738,81.38C11.518,82.931 18.906,97.625 31.337,88.204C40.318,82.105 39.198,71.575 39.198,71.575C39.179,63.717 25.389,48.593 24.398,47.596C24.318,47.068 13.005,34.901 16.787,18.615C16.787,18.615 19.506,3.514 38.494,3.193Z" style="fill:rgb(251,209,50);fill-opacity:0.92;"/>
        <path d="M81.437,5.25C87.678,6.12 84.161,13.187 81.895,23.561C74.98,55.218 73.733,54.783 67.736,86.503C67.602,86.725 66.727,88.844 70.504,88.2C70.504,88.2 79.936,88.906 82.496,88.191C94.002,88.502 94.644,87.591 95.552,89.462C95.955,90.293 96.983,94.608 92.517,94.752C70.97,95.443 71.07,95.45 60.408,94.729C58.711,94.614 58.251,93.5 58.408,92.231C58.508,91.412 59.626,88.509 60.408,86.612C60.408,86.612 79.008,12.445 78.801,9.616L79.368,6.769C79.849,4.998 80.945,5.181 81.437,5.25Z" style="fill:rgb(251,209,50);fill-opacity:0.95;"/>
    </g>
</svg>
